<svg width="50" height="50" viewBox="0 0 50 50" fill="none" xmlns="http://www.w3.org/2000/svg">
<path id="Vector" d="M24.3765 4.38551C30.2182 -1.46165 39.6966 -1.46165 45.5428 4.38441C51.2388 10.0806 51.385 19.2252 45.9809 25.0981L45.5114 25.5906L23.5556 47.5418L23.4643 47.6174C19.8187 50.9025 14.195 50.791 10.6837 47.2796C7.39276 43.9887 7.08808 38.8424 9.76964 35.2079C9.82788 35.0947 9.89836 34.9856 9.98122 34.8831L10.1148 34.7341L10.3317 34.5153L10.6837 34.1463L10.6909 34.1536L29.2429 15.5552C29.9063 14.89 30.9457 14.8282 31.679 15.3708L31.8893 15.5517C32.5545 16.2151 32.6161 17.2546 32.0737 17.9879L31.8928 18.198L12.9444 37.1924C11.1539 39.377 11.2784 42.6063 13.3177 44.6457C15.3862 46.714 18.6787 46.8125 20.8638 44.9411L42.9011 22.9092C47.281 18.5241 47.281 11.4153 42.8964 7.03072C38.6489 2.78319 31.8447 2.65046 27.4373 6.63253L27.0186 7.03072L26.9872 7.06643L3.19438 30.8592C2.46363 31.59 1.27884 31.59 0.548063 30.8592C-0.116248 30.195 -0.176652 29.1554 0.366878 28.4229L0.548063 28.213L24.3722 4.38441L24.3765 4.38551Z" fill="#212121"/>
</svg>
