<svg width="52" height="50" viewBox="0 0 52 50" fill="none" xmlns="http://www.w3.org/2000/svg">
<path id="Vector" d="M42.3614 0C47.1753 0 51.1092 3.76792 51.375 8.5155L51.3892 9.02778V40.9722C51.3892 45.7861 47.6211 49.72 42.8736 49.9858L42.3614 50H10.4169C5.60297 50 1.66906 46.2319 1.40347 41.4844L1.38917 40.9722L1.38836 17.7002C2.04022 17.9307 2.74172 18.0561 3.4725 18.0561C4.20319 18.0561 4.90461 17.9307 5.55642 17.7003L5.55583 40.9722C5.55583 43.5228 7.52003 45.6144 10.0182 45.8172L10.4169 45.8333H42.3614C44.9119 45.8333 47.0036 43.8692 47.2064 41.3708L47.2225 40.9722V9.02778C47.2225 6.47731 45.2583 4.38558 42.76 4.18278L42.3614 4.16667H10.4169C8.74978 4.16667 7.27864 5.00592 6.40297 6.285C5.53094 5.81944 4.53256 5.55556 3.4725 5.55556C2.96908 5.55556 2.47958 5.61506 2.01064 5.72744C3.26975 2.52497 6.30575 0.215611 9.90467 0.014278L10.4169 0H42.3614ZM29.8503 27.7864C31.0008 27.7864 31.9336 28.7189 31.9336 29.8697C31.9336 30.9242 31.15 31.7958 30.1331 31.9339L29.8503 31.9531H17.3552C16.2046 31.9531 15.2718 31.0203 15.2718 29.8697C15.2718 28.815 16.0556 27.9433 17.0725 27.8053L17.3552 27.7864H29.8503ZM35.4231 18.0451C36.5739 18.0451 37.5064 18.9778 37.5064 20.1283C37.5064 21.1831 36.7228 22.0547 35.7058 22.1928L35.4231 22.2117H17.3552C16.2046 22.2117 15.2718 21.2789 15.2718 20.1283C15.2718 19.0737 16.0556 18.2021 17.0725 18.0641L17.3552 18.0451H35.4231ZM3.4725 8.33333C5.39031 8.33333 6.945 9.88803 6.945 11.8058C6.945 13.7236 5.39031 15.2783 3.4725 15.2783C1.55469 15.2783 0 13.7236 0 11.8058C0 9.88803 1.55469 8.33333 3.4725 8.33333Z" fill="#212121"/>
</svg>
