<svg width="30" height="31" viewBox="0 0 30 31" fill="none" xmlns="http://www.w3.org/2000/svg">
<g id="Announcement-Megaphone--Streamline-Core.svg">
<g id="annoncement-megaphone">
<path id="Vector" d="M15.3618 9.02637L23.0386 22.3227" stroke="black" stroke-width="2.14" stroke-linecap="round" stroke-linejoin="round"/>
<path id="Vector_2" d="M22.6364 21.6243L3.71254 26.0184L2.50049 23.919L15.7679 9.72754" stroke="black" stroke-width="2.14" stroke-linecap="round" stroke-linejoin="round"/>
<path id="Vector_3" d="M7.8291 25.0615L8.87113 26.8662C9.24915 27.5141 9.86905 27.9854 10.5945 28.1762C11.3199 28.3668 12.0914 28.2618 12.7393 27.8837C13.3872 27.5058 13.8584 26.8859 14.0492 26.1603C14.24 25.435 14.1349 24.6635 13.7569 24.0155L13.59 23.7266" stroke="black" stroke-width="2.14" stroke-linecap="round" stroke-linejoin="round"/>
<path id="Vector 591" d="M15.8838 5.22588V2.73145" stroke="black" stroke-width="2.14" stroke-linecap="round" stroke-linejoin="round"/>
<path id="Vector 602" d="M25.4409 14.7832H27.9354" stroke="black" stroke-width="2.14" stroke-linecap="round" stroke-linejoin="round"/>
<path id="Vector 603" d="M3.83398 14.7832H6.32841" stroke="black" stroke-width="2.14" stroke-linecap="round" stroke-linejoin="round"/>
<path id="Vector 605" d="M7.36084 6.26172L9.12468 8.02556" stroke="black" stroke-width="2.14" stroke-linecap="round" stroke-linejoin="round"/>
<path id="Vector 600" d="M22.6416 8.02458L24.4053 6.26074" stroke="black" stroke-width="2.14" stroke-linecap="round" stroke-linejoin="round"/>
</g>
</g>
</svg>
