<svg width="28" height="26" viewBox="0 0 28 26" fill="none" xmlns="http://www.w3.org/2000/svg">
<g id="archive-box--box-content-banker-archive-file">
<path id="Vector" d="M3.05664 9.02063H24.9437V22.9488C24.9437 23.4764 24.734 23.9826 24.3609 24.3557C23.9878 24.7288 23.4816 24.9385 22.954 24.9385H5.04637C4.51866 24.9385 4.01257 24.7288 3.63941 24.3557C3.26628 23.9826 3.05664 23.4764 3.05664 22.9488V9.02063Z" stroke="#666666" stroke-width="2.14" stroke-linecap="round" stroke-linejoin="round"/>
<path id="Vector_2" d="M26.9334 7.03084V3.05138C26.9334 1.95249 26.0426 1.06165 24.9437 1.06165H3.05663C1.95773 1.06165 1.06689 1.95249 1.06689 3.05138V7.03084C1.06689 8.12973 1.95773 9.02057 3.05663 9.02057H24.9437C26.0426 9.02057 26.9334 8.12973 26.9334 7.03084Z" stroke="#666666" stroke-width="2.14" stroke-linecap="round" stroke-linejoin="round"/>
<path id="Vector_3" d="M11.0156 14.9897H16.9848" stroke="#666666" stroke-width="2.14" stroke-linecap="round" stroke-linejoin="round"/>
</g>
</svg>
